<?xml version="1.0" standalone="no"?>
<!DOCTYPE svg PUBLIC "-//W3C//DTD SVG 20010904//EN"
 "http://www.w3.org/TR/2001/REC-SVG-20010904/DTD/svg10.dtd">
<svg version="1.0" xmlns="http://www.w3.org/2000/svg"
 width="1024.000000pt" height="1024.000000pt" viewBox="0 0 1024.000000 1024.000000"
 preserveAspectRatio="xMidYMid meet">
<metadata>
Created by potrace 1.16, written by Peter Selinger 2001-2019
</metadata>
<g transform="translate(0.000000,1024.000000) scale(0.100000,-0.100000)"
fill="#000000" stroke="none">
<path d="M1090 5856 c0 -2 32 -68 71 -145 l71 -141 441 -1 c243 -1 445 -1 449
0 14 2 96 -91 113 -128 16 -37 16 -41 0 -76 -10 -20 -38 -56 -62 -81 l-45 -44
-366 0 -367 0 -75 -132 c-41 -72 -76 -135 -78 -140 -2 -4 135 -8 305 -9 l308
-1 150 -168 150 -169 172 -3 c152 -3 170 -1 159 12 -7 8 -79 93 -160 188 -82
95 -147 174 -145 176 2 1 24 11 49 20 106 41 212 158 245 269 22 73 19 184 -6
260 -28 87 -102 184 -179 235 -116 78 -101 76 -682 80 -285 1 -518 1 -518 -2z
m1091 -33 c118 -44 208 -127 262 -241 30 -63 32 -74 32 -177 0 -109 -1 -111
-39 -183 -47 -89 -116 -154 -208 -196 l-67 -31 142 -166 c78 -91 148 -173 156
-182 12 -16 2 -17 -142 -17 l-156 0 -152 170 -153 170 -304 0 -303 0 19 28
c10 15 45 73 76 130 l58 102 364 0 363 0 37 33 c42 36 94 112 94 138 0 28 -49
106 -90 143 l-40 36 -445 0 -445 0 -65 130 c-36 71 -65 132 -65 135 0 3 228 5
508 3 488 -3 509 -4 563 -25z"/>
<path d="M3015 5308 c-3 -244 -5 -492 -3 -553 l3 -110 108 -3 109 -3 -4 196
-3 195 96 0 96 0 106 -192 105 -193 116 -3 c64 -1 116 -1 116 2 0 2 -52 96
-115 207 -63 112 -115 206 -115 209 0 4 18 16 39 28 189 106 215 413 47 560
-96 84 -178 102 -472 102 l-222 0 -7 -442z m468 250 c75 -22 127 -95 127 -178
0 -48 -42 -113 -90 -140 -39 -21 -61 -25 -167 -28 l-123 -4 0 181 0 181 106 0
c59 0 125 -5 147 -12z"/>
<path d="M6250 5195 l0 -555 105 0 105 0 0 225 0 225 230 0 231 0 -3 91 -3 90
-227 -1 -228 -1 0 151 0 150 250 0 250 0 0 90 0 90 -355 0 -355 0 0 -555z"/>
<path d="M7070 5195 l0 -555 110 0 110 0 0 253 c0 140 -3 389 -7 555 l-6 302
-104 0 -103 0 0 -555z"/>
<path d="M4880 5565 l0 -95 -60 0 -60 0 0 -80 0 -80 55 0 55 0 0 -241 c0 -147
4 -258 11 -286 27 -105 132 -161 282 -150 43 4 82 9 88 12 5 4 9 45 9 92 0 71
-2 84 -15 79 -8 -3 -37 -8 -64 -12 -44 -6 -52 -4 -75 19 l-26 26 0 231 0 230
90 0 90 0 0 80 0 80 -90 0 -90 0 0 95 0 95 -100 0 -100 0 0 -95z"/>
<path d="M4170 5465 c-70 -20 -141 -66 -185 -120 -134 -163 -121 -473 26 -614
150 -144 421 -145 567 -2 118 115 154 362 77 528 -35 77 -113 155 -187 188
-78 35 -212 44 -298 20z m207 -171 c148 -71 151 -403 3 -482 -36 -19 -56 -23
-102 -20 -108 8 -167 85 -176 230 -7 127 29 225 101 268 40 25 125 26 174 4z"/>
<path d="M5590 5464 c-94 -26 -159 -81 -195 -167 -31 -74 -28 -77 83 -77 l98
0 15 33 c35 79 188 91 252 19 13 -14 17 -32 15 -58 -5 -56 -41 -73 -180 -85
-164 -15 -213 -31 -270 -89 -37 -39 -48 -59 -58 -104 -28 -134 42 -261 161
-297 61 -18 190 -14 240 8 42 19 109 82 109 103 0 6 3 10 8 10 4 0 5 -27 4
-60 l-4 -60 101 0 101 0 0 303 c0 171 -4 318 -10 338 -21 76 -100 156 -178
180 -61 19 -229 21 -292 3z m280 -493 c0 -87 -32 -138 -105 -172 -128 -59
-256 24 -200 130 18 36 50 49 158 60 48 6 95 15 105 20 34 20 42 13 42 -38z"/>
<path d="M7675 5467 c-112 -38 -197 -114 -236 -215 -20 -49 -23 -76 -24 -197
0 -157 9 -199 58 -271 74 -111 181 -159 347 -158 124 0 192 22 262 84 37 32
108 141 108 164 0 3 -49 6 -108 6 l-108 0 -22 -30 c-33 -43 -78 -63 -147 -64
-83 -1 -136 30 -170 98 -14 27 -25 63 -25 78 l0 28 290 0 290 0 0 53 c0 196
-70 332 -207 399 -57 28 -75 32 -166 35 -67 2 -116 -2 -142 -10z m212 -164
c41 -19 81 -76 90 -127 l6 -36 -188 0 -187 0 7 38 c10 53 41 100 83 122 47 24
141 26 189 3z"/>
<path d="M8232 5448 c102 -156 240 -372 244 -383 3 -7 -54 -103 -125 -214 -72
-111 -131 -204 -131 -206 0 -3 50 -4 112 -3 l112 3 80 132 c45 73 84 133 87
133 4 0 44 -61 89 -135 l82 -135 109 0 c86 0 108 3 103 13 -4 6 -63 99 -131
206 l-123 193 125 193 c69 106 128 200 131 209 5 14 -7 16 -103 16 l-110 0
-83 -136 c-45 -74 -86 -132 -90 -127 -5 4 -42 64 -83 133 l-74 125 -118 3
-118 3 15 -23z"/>
</g>
</svg>
